<svg width="15" height="16" viewBox="0 0 15 16" fill="none" xmlns="http://www.w3.org/2000/svg">
<path d="M9.45312 13.6875L4.1875 8.4375C4.125 8.375 4.08083 8.30729 4.055 8.23438C4.02875 8.16146 4.01562 8.08333 4.01562 8C4.01562 7.91667 4.02875 7.83854 4.055 7.76563C4.08083 7.69271 4.125 7.625 4.1875 7.5625L9.45312 2.29687C9.59896 2.15104 9.78125 2.07812 10 2.07812C10.2187 2.07812 10.4062 2.15625 10.5625 2.3125C10.7187 2.46875 10.7969 2.65104 10.7969 2.85938C10.7969 3.06771 10.7187 3.25 10.5625 3.40625L5.96875 8L10.5625 12.5938C10.7083 12.7396 10.7812 12.9192 10.7812 13.1325C10.7812 13.3463 10.7031 13.5313 10.5469 13.6875C10.3906 13.8438 10.2083 13.9219 10 13.9219C9.79167 13.9219 9.60937 13.8438 9.45312 13.6875Z" fill="#333333"/>
</svg>
