<svg width="20" height="20" viewBox="0 0 20 20" fill="none" xmlns="http://www.w3.org/2000/svg">
<path d="M12.2306 10.0022L17.4322 4.80063C17.583 4.65498 17.7033 4.48075 17.786 4.28811C17.8688 4.09547 17.9123 3.88828 17.9142 3.67863C17.916 3.46898 17.876 3.26106 17.7966 3.06702C17.7173 2.87297 17.6 2.69668 17.4518 2.54843C17.3035 2.40018 17.1272 2.28293 16.9332 2.20354C16.7391 2.12415 16.5312 2.0842 16.3216 2.08602C16.1119 2.08784 15.9047 2.1314 15.7121 2.21415C15.5194 2.2969 15.3452 2.41719 15.1996 2.568L9.99798 7.76958L4.7964 2.568C4.6502 2.41944 4.47604 2.30129 4.28395 2.22038C4.09187 2.13946 3.88566 2.09738 3.67723 2.09655C3.4688 2.09573 3.26227 2.13618 3.06955 2.21557C2.87683 2.29497 2.70174 2.41173 2.55437 2.55913C2.40701 2.70654 2.29028 2.88165 2.21093 3.07439C2.13158 3.26713 2.09118 3.47367 2.09205 3.6821C2.09293 3.89053 2.13506 4.09673 2.21602 4.28879C2.29698 4.48086 2.41517 4.65499 2.56376 4.80116L7.76534 10.0022L2.55113 15.2164C2.25904 15.5134 2.09612 15.9137 2.09787 16.3303C2.09961 16.7468 2.26588 17.1458 2.56045 17.4403C2.85502 17.7348 3.25403 17.9009 3.67056 17.9026C4.08709 17.9042 4.4874 17.7412 4.78429 17.449L9.99798 12.2354L15.1996 17.4364C15.346 17.5831 15.5201 17.6995 15.7116 17.7788C15.9032 17.8581 16.1085 17.8988 16.3159 17.8985C16.6281 17.8985 16.9333 17.8058 17.1929 17.6323C17.4525 17.4588 17.6548 17.2122 17.7743 16.9238C17.8938 16.6353 17.9251 16.3179 17.8642 16.0116C17.8033 15.7054 17.6529 15.4241 17.4322 15.2033L12.2306 10.0022Z" fill="#777777"/>
</svg>
