<svg width="35" height="35" viewBox="0 0 35 35" fill="none" xmlns="http://www.w3.org/2000/svg">
<g clip-path="url(#clip0_189_136)">
<path d="M5.83332 8.75H2.91666V29.1667C2.91666 30.7708 4.22916 32.0833 5.83332 32.0833H26.25V29.1667H5.83332V8.75Z" fill="#777777"/>
<path d="M29.1667 2.9165H11.6667C10.0625 2.9165 8.75 4.229 8.75 5.83317V23.3332C8.75 24.9373 10.0625 26.2498 11.6667 26.2498H29.1667C30.7708 26.2498 32.0833 24.9373 32.0833 23.3332V5.83317C32.0833 4.229 30.7708 2.9165 29.1667 2.9165ZM20.4312 21.8748C19.5708 21.8748 18.9 21.1894 18.9 20.3436C18.9 19.4832 19.5854 18.8269 20.4312 18.8269C21.2917 18.8269 21.9479 19.4832 21.9479 20.3436C21.9333 21.1894 21.2917 21.8748 20.4312 21.8748ZM24.0771 12.8769C23.1583 14.2332 22.2833 14.6415 21.8021 15.5165C21.6125 15.8665 21.5396 16.0998 21.5396 17.2373H19.3229C19.3229 16.6394 19.2354 15.6623 19.7021 14.8311C20.3 13.7665 21.4229 13.1394 22.0792 12.2061C22.7792 11.2144 22.3854 9.37692 20.4167 9.37692C19.1333 9.37692 18.4917 10.354 18.2292 11.1707L16.2312 10.3394C16.7854 8.6915 18.2583 7.2915 20.4021 7.2915C22.1958 7.2915 23.4354 8.10817 24.0625 9.129C24.6021 10.0186 24.9083 11.6519 24.0771 12.8769Z" fill="#777777"/>
</g>
<defs>
<clipPath id="clip0_189_136">
<rect width="35" height="35" fill="white"/>
</clipPath>
</defs>
</svg>
