<svg width="35" height="35" viewBox="0 0 35 35" fill="none" xmlns="http://www.w3.org/2000/svg">
<path d="M28.3209 6.86886C28.186 6.73367 28.0258 6.62641 27.8494 6.55323C27.6729 6.48005 27.4838 6.44238 27.2928 6.44238C27.1018 6.44238 26.9127 6.48005 26.7363 6.55323C26.5599 6.62641 26.3996 6.73367 26.2647 6.86886L13.898 19.2501L8.73553 14.0876C8.46286 13.8149 8.09303 13.6618 7.70741 13.6618C7.32178 13.6618 6.95196 13.8149 6.67928 14.0876C6.40661 14.3603 6.25342 14.7301 6.25342 15.1157C6.25342 15.3067 6.29103 15.4958 6.3641 15.6722C6.43717 15.8486 6.54427 16.0088 6.67928 16.1439L12.8626 22.3272C13.4314 22.8959 14.3501 22.8959 14.9189 22.3272L28.3209 8.92511C28.9043 8.35636 28.9043 7.43761 28.3209 6.86886ZM8.75011 29.1668H26.2501C27.0522 29.1668 27.7084 28.5105 27.7084 27.7084C27.7084 26.9064 27.0522 26.2501 26.2501 26.2501H8.75011C7.94803 26.2501 7.29178 26.9064 7.29178 27.7084C7.29178 28.5105 7.94803 29.1668 8.75011 29.1668Z" fill="#124EAF"/>
</svg>
