<svg width="23" height="24" viewBox="0 0 23 24" fill="none" xmlns="http://www.w3.org/2000/svg">
<path d="M8.21595 16.4391L11.5972 13.0579L14.9784 16.4391L16.2934 15.1242L12.9121 11.7429L16.2934 8.3617L14.9784 7.04677L11.5972 10.428L8.21595 7.04677L6.90101 8.3617L10.2823 11.7429L6.90101 15.1242L8.21595 16.4391ZM11.5972 21.1353C10.2979 21.1353 9.07691 20.8886 7.93418 20.3952C6.79144 19.9024 5.79741 19.2334 4.9521 18.388C4.10679 17.5427 3.43774 16.5487 2.94495 15.406C2.45154 14.2632 2.20483 13.0422 2.20483 11.7429C2.20483 10.4437 2.45154 9.22266 2.94495 8.07993C3.43774 6.93719 4.10679 5.94316 4.9521 5.09785C5.79741 4.25254 6.79144 3.58318 7.93418 3.08976C9.07691 2.59698 10.2979 2.35059 11.5972 2.35059C12.8965 2.35059 14.1175 2.59698 15.2602 3.08976C16.403 3.58318 17.397 4.25254 18.2423 5.09785C19.0876 5.94316 19.7567 6.93719 20.2494 8.07993C20.7429 9.22266 20.9896 10.4437 20.9896 11.7429C20.9896 13.0422 20.7429 14.2632 20.2494 15.406C19.7567 16.5487 19.0876 17.5427 18.2423 18.388C17.397 19.2334 16.403 19.9024 15.2602 20.3952C14.1175 20.8886 12.8965 21.1353 11.5972 21.1353Z" fill="#333333"/>
</svg>
