<svg width="83" height="68" viewBox="0 0 83 68" fill="none" xmlns="http://www.w3.org/2000/svg">
<path d="M82.0954 38.7617V53.0474C82.0954 59.2379 67.1716 67.3331 48.762 67.3331C30.3525 67.3331 15.4287 59.2379 15.4287 53.0474V41.1427" stroke="#FD620C" stroke-linecap="round" stroke-linejoin="round"/>
<path d="M16.8286 42.3759C20.9477 47.8426 33.6858 52.9711 48.7619 52.9711C67.1715 52.9711 82.0953 45.3235 82.0953 38.7521C82.0953 35.0616 77.3953 31.0188 70.0191 28.1807" stroke="#FD620C" stroke-linecap="round" stroke-linejoin="round"/>
<path d="M67.8097 14.9521V29.2379C67.8097 35.4283 52.8859 43.5236 34.4764 43.5236C16.0669 43.5236 1.14307 35.4283 1.14307 29.2379V14.9521" stroke="#FD620C" stroke-linecap="round" stroke-linejoin="round"/>
<path fill-rule="evenodd" clip-rule="evenodd" d="M34.4764 29.1617C52.8859 29.1617 67.8097 21.5141 67.8097 14.9427C67.8097 8.3665 52.8859 0.666504 34.4764 0.666504C16.0669 0.666504 1.14307 8.3665 1.14307 14.9427C1.14307 21.5141 16.0669 29.1617 34.4764 29.1617Z" stroke="#FD620C" stroke-linecap="round" stroke-linejoin="round"/>
</svg>
