<svg width="76" height="76" viewBox="0 0 76 76" fill="none" xmlns="http://www.w3.org/2000/svg">
<path d="M38 56.75C39.0625 56.75 39.9537 56.39 40.6737 55.67C41.3912 54.9525 41.75 54.0625 41.75 53C41.75 51.9375 41.3912 51.0462 40.6737 50.3262C39.9537 49.6087 39.0625 49.25 38 49.25C36.9375 49.25 36.0475 49.6087 35.33 50.3262C34.61 51.0462 34.25 51.9375 34.25 53C34.25 54.0625 34.61 54.9525 35.33 55.67C36.0475 56.39 36.9375 56.75 38 56.75ZM38 41.75C39.0625 41.75 39.9537 41.39 40.6737 40.67C41.3912 39.9525 41.75 39.0625 41.75 38V23C41.75 21.9375 41.3912 21.0462 40.6737 20.3262C39.9537 19.6087 39.0625 19.25 38 19.25C36.9375 19.25 36.0475 19.6087 35.33 20.3262C34.61 21.0462 34.25 21.9375 34.25 23V38C34.25 39.0625 34.61 39.9525 35.33 40.67C36.0475 41.39 36.9375 41.75 38 41.75ZM38 75.5C32.8125 75.5 27.9375 74.515 23.375 72.545C18.8125 70.5775 14.8437 67.9062 11.4687 64.5312C8.09375 61.1562 5.4225 57.1875 3.455 52.625C1.485 48.0625 0.5 43.1875 0.5 38C0.5 32.8125 1.485 27.9375 3.455 23.375C5.4225 18.8125 8.09375 14.8437 11.4687 11.4687C14.8437 8.09375 18.8125 5.42125 23.375 3.45125C27.9375 1.48375 32.8125 0.5 38 0.5C43.1875 0.5 48.0625 1.48375 52.625 3.45125C57.1875 5.42125 61.1562 8.09375 64.5312 11.4687C67.9062 14.8437 70.5775 18.8125 72.545 23.375C74.515 27.9375 75.5 32.8125 75.5 38C75.5 43.1875 74.515 48.0625 72.545 52.625C70.5775 57.1875 67.9062 61.1562 64.5312 64.5312C61.1562 67.9062 57.1875 70.5775 52.625 72.545C48.0625 74.515 43.1875 75.5 38 75.5ZM38 68C46.375 68 53.4687 65.0937 59.2812 59.2812C65.0937 53.4687 68 46.375 68 38C68 29.625 65.0937 22.5312 59.2812 16.7187C53.4687 10.9062 46.375 8 38 8C29.625 8 22.5312 10.9062 16.7187 16.7187C10.9062 22.5312 8 29.625 8 38C8 46.375 10.9062 53.4687 16.7187 59.2812C22.5312 65.0937 29.625 68 38 68Z" fill="#333333" fill-opacity="0.7"/>
</svg>
