<svg width="48" height="47" viewBox="0 0 48 47" fill="none" xmlns="http://www.w3.org/2000/svg">
<path d="M35.4033 17C35.6867 17 35.9243 16.904 36.1163 16.712C36.3077 16.5207 36.4033 16.2833 36.4033 16C36.4033 15.7167 36.3077 15.479 36.1163 15.287C35.9243 15.0957 35.6867 15 35.4033 15C35.12 15 34.8827 15.0957 34.6913 15.287C34.4993 15.479 34.4033 15.7167 34.4033 16C34.4033 16.2833 34.4993 16.5207 34.6913 16.712C34.8827 16.904 35.12 17 35.4033 17ZM35.4033 13C35.6867 13 35.9243 12.904 36.1163 12.712C36.3077 12.5207 36.4033 12.2833 36.4033 12V8C36.4033 7.71667 36.3077 7.479 36.1163 7.287C35.9243 7.09567 35.6867 7 35.4033 7C35.12 7 34.8827 7.09567 34.6913 7.287C34.4993 7.479 34.4033 7.71667 34.4033 8V12C34.4033 12.2833 34.4993 12.5207 34.6913 12.712C34.8827 12.904 35.12 13 35.4033 13ZM35.4033 22C34.02 22 32.72 21.7373 31.5033 21.212C30.2867 20.6873 29.2283 19.975 28.3283 19.075C27.4283 18.175 26.716 17.1167 26.1913 15.9C25.666 14.6833 25.4033 13.3833 25.4033 12C25.4033 10.6167 25.666 9.31667 26.1913 8.1C26.716 6.88333 27.4283 5.825 28.3283 4.925C29.2283 4.025 30.2867 3.31233 31.5033 2.787C32.72 2.26233 34.02 2 35.4033 2C36.7867 2 38.0867 2.26233 39.3033 2.787C40.52 3.31233 41.5783 4.025 42.4783 4.925C43.3783 5.825 44.0907 6.88333 44.6153 8.1C45.1407 9.31667 45.4033 10.6167 45.4033 12C45.4033 13.3833 45.1407 14.6833 44.6153 15.9C44.0907 17.1167 43.3783 18.175 42.4783 19.075C41.5783 19.975 40.52 20.6873 39.3033 21.212C38.0867 21.7373 36.7867 22 35.4033 22ZM35.4033 20C37.6367 20 39.5283 19.225 41.0783 17.675C42.6283 16.125 43.4033 14.2333 43.4033 12C43.4033 9.76667 42.6283 7.875 41.0783 6.325C39.5283 4.775 37.6367 4 35.4033 4C33.17 4 31.2783 4.775 29.7283 6.325C28.1783 7.875 27.4033 9.76667 27.4033 12C27.4033 14.2333 28.1783 16.125 29.7283 17.675C31.2783 19.225 33.17 20 35.4033 20Z" fill="#777777"/>
<path d="M14.9867 42.6248H20.82C20.82 44.229 19.5075 45.5415 17.9033 45.5415C16.2992 45.5415 14.9867 44.229 14.9867 42.6248ZM31.0283 39.7082V41.1665H4.77832V39.7082L7.69499 36.7915V28.0415C7.69499 23.5207 10.6117 19.5832 14.9867 18.2707V17.8332C14.9867 16.229 16.2992 14.9165 17.9033 14.9165C19.5075 14.9165 20.82 16.229 20.82 17.8332V18.2707C25.195 19.5832 28.1117 23.5207 28.1117 28.0415V36.7915L31.0283 39.7082ZM25.195 28.0415C25.195 23.9582 21.9867 20.7498 17.9033 20.7498C13.82 20.7498 10.6117 23.9582 10.6117 28.0415V38.2498H25.195V28.0415Z" fill="#777777"/>
</svg>
