<svg width="25" height="26" viewBox="0 0 25 26" fill="none" xmlns="http://www.w3.org/2000/svg">
<path d="M12.9101 5.13917C11.1718 5.13624 8.99409 5.68556 6.84565 6.80372C4.70063 7.92189 3.00044 9.38673 2.00239 10.8174C1.00385 12.2432 0.733834 13.5713 1.22504 14.5186C1.71674 15.4609 2.95991 16.0029 4.70258 16.0029C6.44526 16.0078 8.62299 15.4561 10.7665 14.3428C12.915 13.2246 14.6142 11.7549 15.6103 10.3291C16.6113 8.90333 16.8749 7.57521 16.3867 6.62794C15.8935 5.68556 14.6533 5.13917 12.9101 5.13917ZM17.3974 8.5713C17.2265 9.31837 16.8554 10.085 16.333 10.832C15.2294 12.4092 13.4277 13.9473 11.1718 15.1192C8.91596 16.2959 6.62592 16.8867 4.7021 16.8867C3.79389 16.8867 2.9521 16.75 2.24262 16.4619L2.75971 17.458C3.2519 18.4053 4.49165 18.9473 6.2353 18.9473C7.97846 18.9473 10.1562 18.4004 12.2998 17.2822C14.4482 16.169 16.1474 14.6992 17.1435 13.2686C18.1396 11.8428 18.413 10.5147 17.9199 9.57228L17.3974 8.5713ZM18.8037 9.39161C19.3505 10.6953 18.9111 12.2822 17.8662 13.7715C16.9433 15.0947 15.5322 16.3789 13.7841 17.4531C14.3261 17.5117 14.8925 17.541 15.4687 17.541C17.8857 17.541 20.0732 17.0234 21.6162 16.2178C23.164 15.4121 24.0136 14.3574 24.0136 13.293C24.0136 12.2285 23.164 11.1738 21.6162 10.3682C20.83 9.95802 19.873 9.62111 18.8037 9.39161ZM24.0136 15.4854C23.5156 16.0664 22.832 16.5791 22.0263 16.999C20.3173 17.8877 18.0126 18.4199 15.4687 18.4199C14.4335 18.4199 13.4374 18.332 12.5048 18.166C11.372 18.7373 10.2343 19.1621 9.14057 19.4404C9.19917 19.4746 9.25776 19.5039 9.32124 19.5381C10.8642 20.3438 13.0517 20.8613 15.4687 20.8613C17.8857 20.8613 20.0732 20.3438 21.6162 19.5381C23.164 18.7324 24.0136 17.6777 24.0136 16.6133V15.4854Z" fill="#124EAF"/>
</svg>
