<svg width="25" height="25" viewBox="0 0 25 25" fill="none" xmlns="http://www.w3.org/2000/svg">
<path d="M6.25001 3.125C6.52628 3.125 6.79123 3.23475 6.98658 3.4301C7.18193 3.62545 7.29168 3.8904 7.29168 4.16667V5.08333C8.39584 4.625 9.89584 4.16667 11.4583 4.16667C14.5833 4.16667 14.5833 6.25 16.6667 6.25C19.7917 6.25 20.8333 4.16667 20.8333 4.16667V12.5C20.8333 12.5 19.7917 14.5833 16.6667 14.5833C13.5417 14.5833 13.5417 12.5 11.4583 12.5C8.33334 12.5 7.29168 14.5833 7.29168 14.5833V21.875H5.20834V4.16667C5.20834 3.8904 5.31809 3.62545 5.51344 3.4301C5.70879 3.23475 5.97374 3.125 6.25001 3.125Z" fill="#124EAF"/>
</svg>
