<svg width="15" height="15" viewBox="0 0 15 15" fill="none" xmlns="http://www.w3.org/2000/svg">
<path d="M6.25 13.125H8.75C8.75 13.8125 8.1875 14.375 7.5 14.375C6.8125 14.375 6.25 13.8125 6.25 13.125ZM13.125 11.875V12.5H1.875V11.875L3.125 10.625V6.875C3.125 4.9375 4.375 3.25 6.25 2.6875V2.5C6.25 1.8125 6.8125 1.25 7.5 1.25C8.1875 1.25 8.75 1.8125 8.75 2.5V2.6875C10.625 3.25 11.875 4.9375 11.875 6.875V10.625L13.125 11.875ZM10.625 6.875C10.625 5.125 9.25 3.75 7.5 3.75C5.75 3.75 4.375 5.125 4.375 6.875V11.25H10.625V6.875Z" fill="#777777"/>
</svg>
