<svg width="25" height="26" viewBox="0 0 25 26" fill="none" xmlns="http://www.w3.org/2000/svg">
<path d="M8.74998 10.5C9.74454 10.5 10.6984 10.1049 11.4016 9.40165C12.1049 8.69839 12.5 7.74456 12.5 6.75C12.5 5.75544 12.1049 4.80161 11.4016 4.09835C10.6984 3.39509 9.74454 3 8.74998 3C7.75542 3 6.80159 3.39509 6.09833 4.09835C5.39507 4.80161 4.99998 5.75544 4.99998 6.75C4.99998 7.74456 5.39507 8.69839 6.09833 9.40165C6.80159 10.1049 7.75542 10.5 8.74998 10.5ZM18.125 11.75C18.9538 11.75 19.7486 11.4208 20.3347 10.8347C20.9207 10.2487 21.25 9.4538 21.25 8.625C21.25 7.7962 20.9207 7.00134 20.3347 6.41529C19.7486 5.82924 18.9538 5.5 18.125 5.5C17.2962 5.5 16.5013 5.82924 15.9153 6.41529C15.3292 7.00134 15 7.7962 15 8.625C15 9.4538 15.3292 10.2487 15.9153 10.8347C16.5013 11.4208 17.2962 11.75 18.125 11.75ZM2.01873 21.035C1.77365 20.8823 1.5768 20.6633 1.45094 20.4034C1.32508 20.1435 1.27534 19.8532 1.30748 19.5662C1.53792 17.7551 2.42092 16.0901 3.79099 14.8833C5.16107 13.6765 6.9242 13.0107 8.74998 13.0107C10.5758 13.0107 12.3389 13.6765 13.709 14.8833C15.079 16.0901 15.962 17.7551 16.1925 19.5662C16.265 20.15 15.9775 20.7162 15.48 21.0338C13.4715 22.3208 11.1354 23.0033 8.74998 23C6.36424 23.0039 4.02766 22.3218 2.01873 21.035ZM18.125 20.5H17.9925C18.08 20.1287 18.1025 19.7362 18.0525 19.3337C17.8388 17.6154 17.1516 15.9903 16.0675 14.64C16.7651 14.3655 17.5106 14.2331 18.2601 14.2507C19.0096 14.2683 19.7481 14.4355 20.4321 14.7425C21.1161 15.0494 21.7319 15.4899 22.2432 16.0382C22.7546 16.5864 23.1513 17.2313 23.41 17.935C23.4895 18.1596 23.488 18.405 23.4058 18.6286C23.3237 18.8523 23.166 19.0402 22.96 19.16C21.5009 20.0397 19.8288 20.5031 18.125 20.5Z" fill="#124EAF"/>
</svg>
